<mxfile host="app.diagrams.net" modified="2023-10-30T20:50:44.343Z" agent="Mozilla/5.0 (Windows NT 10.0; Win64; x64) AppleWebKit/537.36 (KHTML, like Gecko) Chrome/118.0.0.0 Safari/537.36" etag="QT8_2bOrY3EdlZFwK__u" version="22.0.8" type="github">
  <diagram name="Страница — 1" id="LoKFn9zTqr_cdn6rsu6-">
    <mxGraphModel dx="1059" dy="632" grid="1" gridSize="10" guides="1" tooltips="1" connect="1" arrows="1" fold="1" page="1" pageScale="1" pageWidth="827" pageHeight="1169" math="0" shadow="0">
      <root>
        <mxCell id="0" />
        <mxCell id="1" parent="0" />
        <mxCell id="Unp_19I711b7Fh9SQSlU-1" value="Input&lt;br&gt;&lt;span style=&quot;background-color: initial;&quot;&gt;предложение&lt;/span&gt;" style="rounded=1;whiteSpace=wrap;html=1;" vertex="1" parent="1">
          <mxGeometry x="20" y="170" width="120" height="60" as="geometry" />
        </mxCell>
        <mxCell id="Unp_19I711b7Fh9SQSlU-2" value="&lt;span style=&quot;background-color: initial;&quot;&gt;POS-разметка&lt;br&gt;ML part&lt;br&gt;&lt;/span&gt;" style="rounded=1;whiteSpace=wrap;html=1;fillColor=#f8cecc;strokeColor=#b85450;" vertex="1" parent="1">
          <mxGeometry x="340" y="170" width="120" height="60" as="geometry" />
        </mxCell>
        <mxCell id="Unp_19I711b7Fh9SQSlU-3" value="&lt;span style=&quot;background-color: initial;&quot;&gt;BERT model&lt;br&gt;DL part&lt;br&gt;&lt;/span&gt;" style="rounded=1;whiteSpace=wrap;html=1;fillColor=#e1d5e7;strokeColor=#9673a6;" vertex="1" parent="1">
          <mxGeometry x="500" y="170" width="120" height="60" as="geometry" />
        </mxCell>
        <mxCell id="Unp_19I711b7Fh9SQSlU-4" value="&lt;span style=&quot;background-color: initial;&quot;&gt;Output&lt;br&gt;объекты, их описания и связи&lt;br&gt;&lt;/span&gt;" style="rounded=1;whiteSpace=wrap;html=1;fillColor=#dae8fc;strokeColor=#6c8ebf;" vertex="1" parent="1">
          <mxGeometry x="660" y="170" width="120" height="60" as="geometry" />
        </mxCell>
        <mxCell id="Unp_19I711b7Fh9SQSlU-5" value="" style="endArrow=block;endFill=1;html=1;edgeStyle=orthogonalEdgeStyle;align=left;verticalAlign=top;rounded=0;exitX=1;exitY=0.5;exitDx=0;exitDy=0;entryX=0;entryY=0.5;entryDx=0;entryDy=0;" edge="1" parent="1" source="Unp_19I711b7Fh9SQSlU-9" target="Unp_19I711b7Fh9SQSlU-2">
          <mxGeometry x="-1" relative="1" as="geometry">
            <mxPoint x="200" y="200" as="sourcePoint" />
            <mxPoint x="490" y="250" as="targetPoint" />
          </mxGeometry>
        </mxCell>
        <mxCell id="Unp_19I711b7Fh9SQSlU-7" value="" style="endArrow=block;endFill=1;html=1;edgeStyle=orthogonalEdgeStyle;align=left;verticalAlign=top;rounded=0;exitX=1;exitY=0.5;exitDx=0;exitDy=0;entryX=0;entryY=0.5;entryDx=0;entryDy=0;" edge="1" parent="1" source="Unp_19I711b7Fh9SQSlU-2" target="Unp_19I711b7Fh9SQSlU-3">
          <mxGeometry x="-1" relative="1" as="geometry">
            <mxPoint x="400" y="199.5" as="sourcePoint" />
            <mxPoint x="490" y="199.5" as="targetPoint" />
          </mxGeometry>
        </mxCell>
        <mxCell id="Unp_19I711b7Fh9SQSlU-8" value="" style="endArrow=block;endFill=1;html=1;edgeStyle=orthogonalEdgeStyle;align=left;verticalAlign=top;rounded=0;exitX=1;exitY=0.5;exitDx=0;exitDy=0;entryX=0;entryY=0.5;entryDx=0;entryDy=0;" edge="1" parent="1" source="Unp_19I711b7Fh9SQSlU-3" target="Unp_19I711b7Fh9SQSlU-4">
          <mxGeometry x="-1" relative="1" as="geometry">
            <mxPoint x="590" y="250" as="sourcePoint" />
            <mxPoint x="670" y="250" as="targetPoint" />
          </mxGeometry>
        </mxCell>
        <mxCell id="Unp_19I711b7Fh9SQSlU-9" value="&lt;span style=&quot;background-color: initial;&quot;&gt;Предобработка данных&lt;br&gt;&lt;/span&gt;" style="rounded=1;whiteSpace=wrap;html=1;fillColor=#fff2cc;strokeColor=#d6b656;" vertex="1" parent="1">
          <mxGeometry x="180" y="170" width="120" height="60" as="geometry" />
        </mxCell>
        <mxCell id="Unp_19I711b7Fh9SQSlU-10" value="" style="endArrow=block;endFill=1;html=1;edgeStyle=orthogonalEdgeStyle;align=left;verticalAlign=top;rounded=0;exitX=1;exitY=0.5;exitDx=0;exitDy=0;entryX=0;entryY=0.5;entryDx=0;entryDy=0;" edge="1" parent="1" target="Unp_19I711b7Fh9SQSlU-9" source="Unp_19I711b7Fh9SQSlU-1">
          <mxGeometry x="-1" relative="1" as="geometry">
            <mxPoint x="170" y="320" as="sourcePoint" />
            <mxPoint x="490" y="370" as="targetPoint" />
          </mxGeometry>
        </mxCell>
      </root>
    </mxGraphModel>
  </diagram>
</mxfile>
